<?xml version="1.0" encoding="UTF-8" standalone="no"?>
<!-- Created with Inkscape (http://www.inkscape.org/) -->

<svg
   width="114.33411mm"
   height="144.01363mm"
   viewBox="0 0 114.33411 144.01363"
   version="1.1"
   id="svg1"
   inkscape:version="1.4 (86a8ad7, 2024-10-11)"
   sodipodi:docname="logo_color.svg"
   xmlns:inkscape="http://www.inkscape.org/namespaces/inkscape"
   xmlns:sodipodi="http://sodipodi.sourceforge.net/DTD/sodipodi-0.dtd"
   xmlns="http://www.w3.org/2000/svg"
   xmlns:svg="http://www.w3.org/2000/svg">
  <sodipodi:namedview
     id="namedview1"
     pagecolor="#505050"
     bordercolor="#eeeeee"
     borderopacity="1"
     inkscape:showpageshadow="0"
     inkscape:pageopacity="0"
     inkscape:pagecheckerboard="0"
     inkscape:deskcolor="#505050"
     inkscape:document-units="mm"
     showgrid="false"
     inkscape:zoom="0.84871982"
     inkscape:cx="140.21117"
     inkscape:cy="233.88166"
     inkscape:window-width="1366"
     inkscape:window-height="705"
     inkscape:window-x="-8"
     inkscape:window-y="-8"
     inkscape:window-maximized="1"
     inkscape:current-layer="g74">
    <inkscape:grid
       id="grid74"
       units="mm"
       originx="-1.0352449"
       originy="-1.662008"
       spacingx="0.99999998"
       spacingy="1"
       empcolor="#0099e5"
       empopacity="0.30196078"
       color="#0099e5"
       opacity="0.14901961"
       empspacing="5"
       enabled="true"
       visible="false"/>
  </sodipodi:namedview>
  <defs
     id="defs1"/>
  <g
     inkscape:label="Capa 1"
     inkscape:groupmode="layer"
     id="layer1"
     transform="translate(-1.035245,-1.662008)">
    <g
       id="g74"
       transform="translate(-51.017908,-52.177405)">
      <path
         d="m 110.80022,53.839413 c -15.936805,0.0091 -30.116126,3.841984 -35.349777,9.555489 -0.174886,0.20209 -0.34162,0.410403 -0.514697,0.613916 -8.485625,9.977836 -14.804474,21.647866 -18.478975,34.279561 -0.283573,0.97482 -0.540247,1.958681 -0.7922,2.944531 0.427262,5.85359 12.595358,11.13774 31.436841,13.65187 -15.566558,-2.85581 -25.251345,-8.29912 -25.293547,-14.21619 0.05747,-4.799375 6.474751,-9.345666 17.536397,-12.423526 9.201901,-1.79857 20.139829,-2.766664 31.353638,-2.775024 11.37607,0.002 22.47133,0.991649 31.76344,2.833419 10.86204,3.0905 17.11931,7.608296 17.12609,12.365131 -0.0421,5.91704 -9.72667,11.36033 -25.29303,14.21619 19.15125,-2.54781 31.40014,-7.9517 31.50557,-13.89941 -0.20048,-0.78021 -0.38896,-1.56453 -0.60927,-2.33784 -3.58767,-12.592912 -9.80455,-24.237681 -18.1684,-34.2222 -0.38646,-0.461351 -0.76914,-0.925621 -1.16478,-1.379761 -5.50363,-5.537602 -19.46423,-9.203699 -35.0573,-9.206156 z"
         style="fill:#e52020;fill-opacity:1;stroke-width:0;stroke-opacity:0.979592"
         id="path66"/>
      <path
         d="m 52.053153,151.95817 c 0.04542,0.32957 0.08073,0.66048 0.129708,0.9896 6.319672,26.26611 29.87116,44.81902 57.003759,44.90527 27.3979,-0.0658 51.12048,-18.95622 57.20064,-45.54916 l -0.0693,0.0129 -2.53679,0.47181 -4.80178,4.69583 -0.046,0.045 -0.0439,-0.01 -5.58933,-1.23713 -6.09937,4.1212 -0.0594,0.0403 -0.031,-0.0243 -7.9561,-6.26732 -12.14603,8.58294 -0.0393,0.0279 -0.0222,-0.0238 -7.81761,-8.41654 -9.86968,9.00824 -9.870198,-9.00824 -7.820194,8.41912 -0.01964,0.0212 -0.03514,-0.0248 -12.150163,-8.58604 -7.961788,6.27145 -0.02532,0.0202 -0.04858,-0.0331 -6.109705,-4.12843 -5.630664,1.24644 -0.0031,5.1e-4 -0.0036,-0.004 -4.844149,-4.73718 -2.551782,-0.47491 c -0.05327,-0.11837 -0.09737,-0.23689 -0.132292,-0.35553 z"
         style="fill:#e7d692;fill-opacity:1;stroke-width:0;stroke-opacity:0.979592"
         id="path70"/>
      <path
         id="path69"
         style="fill:#f9cb43;fill-opacity:1;stroke:#000000;stroke-width:0;stroke-dasharray:none;stroke-opacity:1"
         d="m 114.67672,98.805855 c -3.48312,-0.106518 -7.98858,0.639092 -13.78314,2.939875 6.8909,11.70359 -0.67087,37.88633 -6.978382,55.17958 l 5.357295,-5.76813 9.870197,9.00875 7.27294,-6.63887 c -3.34633,-20.72488 5.63496,-45.57143 8.42119,-49.4223 l 0.031,-0.82889 c -1.31836,-1.6524 -4.26739,-4.288861 -10.19111,-4.470015 z"/>
      <path
         style="fill:#a89c29;fill-opacity:1;stroke:#000000;stroke-width:0;stroke-dasharray:none;stroke-opacity:1"
         d="m 99.282363,101.42901 c -34.078,-4.159126 -34.212165,-1.34166 -34.212165,-1.34166 0,0 4.159126,-12.343207 34.212165,1.34166 z"
         id="path71"/>
      <path
         style="fill:#a89c29;fill-opacity:1;stroke:#000000;stroke-width:0;stroke-dasharray:none;stroke-opacity:1"
         d="m 126.38377,103.17316 c 29.65054,-6.708269 26.96723,2.81747 26.96723,2.81747 0,0 5.36662,-17.30733 -26.96723,-2.81747 z"
         id="path72"/>
      <path
         style="fill:#a89c29;fill-opacity:1;stroke:#000000;stroke-width:0;stroke-dasharray:none;stroke-opacity:1"
         d="M 113.40139,98.110949 C 125.8536,86.023882 111.5016,86.595572 111.5016,86.595572 Z"
         id="path73"/>
      <path
         style="fill:#a89c29;fill-opacity:1;stroke:#000000;stroke-width:0;stroke-dasharray:none;stroke-opacity:1"
         d="m 124.19823,108.31571 c 15.35451,-6.40816 10.095,4.84248 10.095,4.84248 0,0 2.26933,-6.51619 -10.095,-4.84248 z"
         id="path74"/>
      <path
         style="fill:#a89c29;fill-opacity:1;stroke:#000000;stroke-width:0;stroke-dasharray:none;stroke-opacity:1"
         d="m 100.9348,108.02194 c -18.54304,-8.281268 -12.191331,6.25795 -12.191331,6.25795 0,0 -2.740582,-8.42089 12.191331,-6.25795 z"
         id="path74-7"/>
    </g>
  </g>
</svg>
